<svg id="Group_8" data-name="Group 8" xmlns="http://www.w3.org/2000/svg" width="1120.36" height="699.469" viewBox="0 0 1120.36 699.469">
  <circle id="Ellipse_46" data-name="Ellipse 46" cx="213.143" cy="213.143" r="213.143" transform="translate(79.662)" fill="#f2f2f2"/>
  <path id="Path_39" data-name="Path 39" d="M31.391,151.642c0,77.55,48.651,140.3,108.774,140.3" transform="translate(-31.391 -100.466)" fill="#2f2e41"/>
  <path id="Path_40" data-name="Path 40" d="M140.092,291.946c0-78.421,54.291-141.879,121.385-141.879" transform="translate(-31.318 -100.467)" fill="#00ed96"/>
  <path id="Path_41" data-name="Path 41" d="M70.775,158.668c0,73.664,31.024,133.272,69.363,133.272" transform="translate(-31.364 -100.461)" fill="#00ed96"/>
  <path id="Path_42" data-name="Path 42" d="M140.092,291.973c0-100.205,62.752-181.29,140.3-181.29" transform="translate(-31.318 -100.493)" fill="#2f2e41"/>
  <path id="Path_43" data-name="Path 43" d="M117.224,292.845s15.426-.475,20.075-3.786,23.729-7.263,24.882-1.954,23.182,26.406,5.767,26.546-40.467-2.713-45.107-5.539S117.224,292.845,117.224,292.845Z" transform="translate(-31.333 -100.376)" fill="#a8a8a8"/>
  <path id="Path_44" data-name="Path 44" d="M168.258,311.8c-17.416.141-40.466-2.713-45.107-5.539-3.534-2.152-4.942-9.876-5.413-13.439-.326.014-.515.02-.515.02s.977,12.441,5.617,15.268,27.691,5.68,45.107,5.539c5.027-.041,6.764-1.829,6.668-4.478C173.917,310.768,172,311.768,168.258,311.8Z" transform="translate(-31.333 -100.371)" opacity="0.2"/>
  <ellipse id="Ellipse_47" data-name="Ellipse 47" cx="187.126" cy="25.457" rx="187.126" ry="25.457" transform="translate(11.617 399.328)" fill="#3f3d56"/>
  <ellipse id="Ellipse_48" data-name="Ellipse 48" cx="157.105" cy="21.373" rx="157.105" ry="21.373" transform="translate(41.637 403.412)" opacity="0.1"/>
  <ellipse id="Ellipse_49" data-name="Ellipse 49" cx="283.19" cy="38.526" rx="283.19" ry="38.526" transform="translate(553.981 622.418)" fill="#3f3d56"/>
  <ellipse id="Ellipse_50" data-name="Ellipse 50" cx="170.114" cy="23.143" rx="170.114" ry="23.143" transform="translate(140.703 622.791)" fill="#3f3d56"/>
  <path id="Path_45" data-name="Path 45" d="M494,726.56c90.06,23.015,263.177-30.02,282.189-90.061" transform="translate(-31.08 -100.14)" fill="none" stroke="#2f2e41" stroke-miterlimit="10" stroke-width="2"/>
  <path id="Path_46" data-name="Path 46" d="M341,359.5s130.087-36.024,138.093,80.054-107.072,149.1-17.011,172.116" transform="translate(-31.183 -100.33)" fill="none" stroke="#2f2e41" stroke-miterlimit="10" stroke-width="2"/>
  <path id="Path_47" data-name="Path 47" d="M215.4,637.784s39.1-10.827,41.5,24.061-32.181,44.813-5.113,51.73" transform="translate(-31.267 -100.14)" fill="none" stroke="#2f2e41" stroke-miterlimit="10" stroke-width="2"/>
  <path id="Path_48" data-name="Path 48" d="M810.116,663.742l-7.884,50.329s-38.808,20.617-11.521,21.223,155.837,0,155.837,0,24.861,0-14.553-21.829l-7.883-52.754Z" transform="translate(-30.887 -100.124)" fill="#2f2e41"/>
  <path id="Path_49" data-name="Path 49" d="M785.222,734.748c6.2-5.514,17.01-11.26,17.01-11.26l7.883-50.329,114,.107L932,722.882c9.191,5.09,14.885,8.993,18.216,11.986,5.062-1.155,10.594-5.448-18.216-21.4l-7.883-52.754-114,3.032-7.883,50.329S769.622,731.4,785.222,734.748Z" transform="translate(-30.887 -100.124)" opacity="0.1"/>
  <rect id="Rectangle_6" data-name="Rectangle 6" width="513.598" height="357.76" rx="18.046" transform="translate(578.821 212.832)" fill="#2f2e41"/>
  <rect id="Rectangle_7" data-name="Rectangle 7" width="479.034" height="268.017" transform="translate(596.103 231.933)" fill="#3f3d56"/>
  <circle id="Ellipse_51" data-name="Ellipse 51" cx="3.032" cy="3.032" r="3.032" transform="translate(832.589 220.411)" fill="#f2f2f2"/>
  <path id="Path_50" data-name="Path 50" d="M1123.425,621.322v31.362a18.056,18.056,0,0,1-18.06,18.058H627.882a18.056,18.056,0,0,1-18.058-18.061V621.322Z" transform="translate(-31.002 -100.15)" fill="#2f2e41"/>
  <path id="Path_51" data-name="Path 51" d="M969.2,667.48v6.064H642.968v-4.851l.449-1.213,8.04-21.83H962.527Z" transform="translate(0.432 0.434)" fill="#2f2e41"/>
  <path id="Path_52" data-name="Path 52" d="M1125.892,762.048c-.595,2.541-2.839,5.221-7.908,7.756-18.191,9.1-55.18-2.426-55.18-2.426s-28.5-4.851-28.5-17.585a22.875,22.875,0,0,1,2.5-1.486c7.648-4.046,33.007-14.03,77.971.423a18.748,18.748,0,0,1,8.546,5.6C1125.141,756.464,1126.572,759.169,1125.892,762.048Z" transform="translate(-30.717 -100.07)" fill="#2f2e41"/>
  <path id="Path_53" data-name="Path 53" d="M1125.89,762.048c-22.266,8.532-42.113,9.168-62.48-4.978-10.272-7.131-19.6-8.9-26.608-8.762,7.648-4.046,33.007-14.03,77.97.423a18.75,18.75,0,0,1,8.546,5.6C1125.139,756.464,1126.57,759.169,1125.89,762.048Z" transform="translate(-30.716 -100.07)" opacity="0.1"/>
  <ellipse id="Ellipse_52" data-name="Ellipse 52" cx="7.883" cy="2.425" rx="7.883" ry="2.425" transform="translate(1059.373 652.149)" fill="#f2f2f2"/>
  <circle id="Ellipse_53" data-name="Ellipse 53" cx="11.521" cy="11.521" r="11.521" transform="translate(824.1 534.512)" fill="#f2f2f2"/>
  <path id="Path_54" data-name="Path 54" d="M969.2,667.466v6.064H642.968v-4.851l.449-1.213Z" transform="translate(0.432 0.448)" opacity="0.1"/>
  <rect id="Rectangle_8" data-name="Rectangle 8" width="208.14" height="242.162" transform="translate(108.682 159.107)" fill="#2f2e41"/>
  <rect id="Rectangle_9" data-name="Rectangle 9" width="250.168" height="86.058" transform="translate(87.668 135.091)" fill="#3f3d56"/>
  <rect id="Rectangle_10" data-name="Rectangle 10" width="250.168" height="86.058" transform="translate(87.668 237.159)" fill="#3f3d56"/>
  <rect id="Rectangle_11" data-name="Rectangle 11" width="250.168" height="86.058" transform="translate(87.668 339.228)" fill="#3f3d56"/>
  <rect id="Rectangle_12" data-name="Rectangle 12" width="16.011" height="16.011" transform="translate(271.791 150.101)" fill="#00ed96" opacity="0.4"/>
  <rect id="Rectangle_13" data-name="Rectangle 13" width="16.011" height="16.011" transform="translate(294.807 150.101)" fill="#00ed96" opacity="0.8"/>
  <rect id="Rectangle_14" data-name="Rectangle 14" width="16.011" height="16.011" transform="translate(317.822 150.101)" fill="#00ed96"/>
  <rect id="Rectangle_15" data-name="Rectangle 15" width="16.011" height="16.011" transform="translate(271.791 251.169)" fill="#00ed96" opacity="0.4"/>
  <rect id="Rectangle_16" data-name="Rectangle 16" width="16.011" height="16.011" transform="translate(294.807 251.169)" fill="#00ed96" opacity="0.8"/>
  <rect id="Rectangle_17" data-name="Rectangle 17" width="16.011" height="16.011" transform="translate(317.822 251.169)" fill="#00ed96"/>
  <rect id="Rectangle_18" data-name="Rectangle 18" width="16.011" height="16.011" transform="translate(271.791 352.236)" fill="#00ed96" opacity="0.4"/>
  <rect id="Rectangle_19" data-name="Rectangle 19" width="16.011" height="16.011" transform="translate(294.807 352.236)" fill="#00ed96" opacity="0.8"/>
  <rect id="Rectangle_20" data-name="Rectangle 20" width="16.011" height="16.011" transform="translate(317.822 352.236)" fill="#00ed96"/>
  <circle id="Ellipse_54" data-name="Ellipse 54" cx="79.053" cy="79.053" r="79.053" transform="translate(237.769 459.308)" fill="#2f2e41"/>
  <rect id="Rectangle_21" data-name="Rectangle 21" width="24.016" height="43.029" transform="translate(280.797 600.403)" fill="#2f2e41"/>
  <rect id="Rectangle_22" data-name="Rectangle 22" width="24.016" height="43.029" transform="translate(328.83 600.403)" fill="#2f2e41"/>
  <ellipse id="Ellipse_55" data-name="Ellipse 55" cx="20.013" cy="7.505" rx="20.013" ry="7.505" transform="translate(280.797 636.427)" fill="#2f2e41"/>
  <ellipse id="Ellipse_56" data-name="Ellipse 56" cx="20.013" cy="7.505" rx="20.013" ry="7.505" transform="translate(328.83 635.426)" fill="#2f2e41"/>
  <circle id="Ellipse_57" data-name="Ellipse 57" cx="27.018" cy="27.018" r="27.018" transform="translate(291.805 491.33)" fill="#fff"/>
  <circle id="Ellipse_58" data-name="Ellipse 58" cx="9.006" cy="9.006" r="9.006" transform="translate(309.817 509.342)" fill="#3f3d56"/>
  <path id="Path_55" data-name="Path 55" d="M271.368,565.076c-6.383-28.586,14.021-57.472,45.575-64.518s62.307,10.417,68.69,39-14.528,39.13-46.082,46.176S277.751,593.663,271.368,565.076Z" transform="translate(-31.231 -100.232)" fill="#00ed96"/>
  <ellipse id="Ellipse_59" data-name="Ellipse 59" cx="39.527" cy="12.409" rx="39.527" ry="12.409" transform="translate(344.862 515.33) rotate(-23.171)" fill="#2f2e41"/>
  <ellipse id="Ellipse_60" data-name="Ellipse 60" cx="39.527" cy="12.409" rx="39.527" ry="12.409" transform="translate(196.763 568.365) rotate(-23.171)" fill="#2f2e41"/>
  <path id="Path_56" data-name="Path 56" d="M394.057,661.5c0,7.737-19.922,23.015-42.028,23.015S309,670.241,309,662.5s20.923-6,43.029-6S394.057,653.767,394.057,661.5Z" transform="translate(-31.204 -100.127)" fill="#fff"/>
</svg>
