<svg id="Group_9" data-name="Group 9" xmlns="http://www.w3.org/2000/svg" xmlns:xlink="http://www.w3.org/1999/xlink" width="831.079" height="647.012" viewBox="0 0 831.079 647.012">
  <defs>
    <linearGradient id="linear-gradient" x1="0.73" y1="0.089" x2="0.161" y2="0.929" gradientUnits="objectBoundingBox">
      <stop offset="0" stop-color="#00ed96"/>
      <stop offset="1" stop-color="#06f3f3"/>
    </linearGradient>
  </defs>
  <path id="Path_6" data-name="Path 6" d="M216.415,126.5a31.983,31.983,0,0,0-31.946,31.946V741.566a31.983,31.983,0,0,0,31.946,31.946h319.4a31.983,31.983,0,0,0,31.946-31.946V158.446A31.983,31.983,0,0,0,535.817,126.5Z" transform="translate(-184.468 -126.5)" fill="#2d2b2b"/>
  <path id="Path_7" data-name="Path 7" d="M226.854,144.65a24.265,24.265,0,0,0-24.237,24.237V731.124a24.264,24.264,0,0,0,24.237,24.237H525.376a24.264,24.264,0,0,0,24.237-24.237V168.887a24.265,24.265,0,0,0-24.237-24.237Z" transform="translate(-184.468 -126.5)" fill="#fff"/>
  <path id="Path_8" data-name="Path 8" d="M520.251,263.149H231.978a5.345,5.345,0,0,1-5.338-5.338V186.3a5.345,5.345,0,0,1,5.338-5.338H520.251a5.345,5.345,0,0,1,5.338,5.338V257.81A5.345,5.345,0,0,1,520.251,263.149ZM231.978,183.1a3.206,3.206,0,0,0-3.2,3.2V257.81a3.206,3.206,0,0,0,3.2,3.2H520.251a3.207,3.207,0,0,0,3.2-3.2V186.3a3.207,3.207,0,0,0-3.2-3.2Z" transform="translate(-184.467 -126.499)" fill="#8e8e8e"/>
  <path id="Path_9" data-name="Path 9" d="M520.251,546.079H231.978a5.345,5.345,0,0,1-5.338-5.338V408.374a5.345,5.345,0,0,1,5.338-5.338H520.251a5.345,5.345,0,0,1,5.338,5.338V540.74a5.345,5.345,0,0,1-5.338,5.338ZM231.978,405.171a3.207,3.207,0,0,0-3.2,3.2V540.74a3.206,3.206,0,0,0,3.2,3.2H520.251a3.207,3.207,0,0,0,3.2-3.2V408.374a3.207,3.207,0,0,0-3.2-3.2Z" transform="translate(-184.467 -126.495)" fill="#8e8e8e"/>
  <path id="Path_10" data-name="Path 10" d="M518.113,374.185H389.991a5.344,5.344,0,0,1-5.338-5.339V297.338A5.344,5.344,0,0,1,389.991,292H518.113a5.345,5.345,0,0,1,5.338,5.338v71.508A5.345,5.345,0,0,1,518.113,374.185ZM389.991,294.135a3.207,3.207,0,0,0-3.2,3.2v71.508a3.207,3.207,0,0,0,3.2,3.2H518.113a3.207,3.207,0,0,0,3.2-3.2V297.338a3.206,3.206,0,0,0-3.2-3.2Z" transform="translate(-184.464 -126.497)" fill="#8e8e8e"/>
  <path id="Path_11" data-name="Path 11" d="M360.1,719.039H231.978a5.345,5.345,0,0,1-5.338-5.339V580.267a5.345,5.345,0,0,1,5.338-5.338H360.1a5.345,5.345,0,0,1,5.338,5.338V713.7a5.345,5.345,0,0,1-5.338,5.339ZM231.978,577.064a3.206,3.206,0,0,0-3.2,3.2V713.7a3.206,3.206,0,0,0,3.2,3.2H360.1a3.207,3.207,0,0,0,3.2-3.2V580.267a3.206,3.206,0,0,0-3.2-3.2Z" transform="translate(-184.467 -126.492)" fill="#8e8e8e"/>
  <path id="Path_12" data-name="Path 12" d="M518.113,719.039H389.991a5.345,5.345,0,0,1-5.338-5.339V580.267a5.345,5.345,0,0,1,5.338-5.338H518.113a5.345,5.345,0,0,1,5.338,5.338V713.7A5.345,5.345,0,0,1,518.113,719.039ZM389.991,577.064a3.206,3.206,0,0,0-3.2,3.2V713.7a3.207,3.207,0,0,0,3.2,3.2H518.113a3.207,3.207,0,0,0,3.2-3.2V580.267a3.206,3.206,0,0,0-3.2-3.2Z" transform="translate(-184.464 -126.492)" fill="#8e8e8e"/>
  <circle id="Ellipse_34" data-name="Ellipse 34" cx="21.746" cy="21.746" r="21.746" transform="translate(68.422 301.685)" fill="#8e8e8e"/>
  <path id="Path_13" data-name="Path 13" d="M324.855,435.428a3.624,3.624,0,0,0,0,7.249h170.86a3.624,3.624,0,0,0,0-7.249Z" transform="translate(-184.465 -126.494)" fill="#8e8e8e"/>
  <path id="Path_14" data-name="Path 14" d="M324.855,457.174a3.624,3.624,0,1,0-.015,7.249h73.537a3.624,3.624,0,1,0,0-7.248Z" transform="translate(-184.465 -126.494)" fill="#8e8e8e"/>
  <path id="Path_15" data-name="Path 15" d="M257.955,491.938c-2.757,0-5,1.626-5,3.624s2.244,3.624,5,3.624H493.688c2.757,0,5-1.626,5-3.624s-2.244-3.624-5-3.624Z" transform="translate(-184.467 -126.493)" fill="#8e8e8e"/>
  <path id="Path_16" data-name="Path 16" d="M257.955,513.684c-2.757,0-5,1.626-5,3.625s2.244,3.624,5,3.624H493.688c2.757,0,5-1.626,5-3.624s-2.244-3.625-5-3.625Z" transform="translate(-184.467 -126.493)" fill="#8e8e8e"/>
  <circle id="Ellipse_35" data-name="Ellipse 35" cx="21.746" cy="21.746" r="21.746" transform="translate(70.557 71.067)" fill="#8e8e8e"/>
  <path id="Path_17" data-name="Path 17" d="M326.991,204.815a3.624,3.624,0,1,0,0,7.248H497.85a3.624,3.624,0,1,0,.015-7.248H326.991Z" transform="translate(-184.465 -126.499)" fill="#8e8e8e"/>
  <path id="Path_18" data-name="Path 18" d="M326.991,226.56a3.624,3.624,0,0,0,0,7.249h73.521a3.624,3.624,0,0,0,.016-7.249H326.991Z" transform="translate(-184.465 -126.498)" fill="#8e8e8e"/>
  <path id="Path_19" data-name="Path 19" d="M359.986,374.2H239.8l28.285-48.991a5.776,5.776,0,0,1,10,0l12.083,20.928,20.545-35.585a7.231,7.231,0,0,1,12.525,0ZM243.5,372.062H356.288l-34.9-60.445a5.1,5.1,0,0,0-8.826,0l-22.395,38.788-13.932-24.131a3.64,3.64,0,0,0-6.3,0Z" transform="translate(-184.467 -126.497)" fill="#8e8e8e"/>
  <path id="Path_20" data-name="Path 20" d="M513.729,374.2H393.54l28.284-48.991a5.776,5.776,0,0,1,10,0l12.083,20.928,20.545-35.585a7.231,7.231,0,0,1,12.525,0Zm-116.491-2.135H510.031l-34.9-60.445a5.1,5.1,0,0,0-8.826,0l-22.395,38.788-13.933-24.131a3.64,3.64,0,0,0-6.305,0Z" transform="translate(-184.464 -126.497)" fill="#8e8e8e"/>
  <path id="Path_21" data-name="Path 21" d="M360.1,374.185H231.978a5.345,5.345,0,0,1-5.338-5.338V297.338A5.345,5.345,0,0,1,231.978,292H360.1a5.345,5.345,0,0,1,5.339,5.338v71.508a5.345,5.345,0,0,1-5.339,5.338ZM231.978,294.135a3.206,3.206,0,0,0-3.2,3.2v71.508a3.207,3.207,0,0,0,3.2,3.2H360.1a3.207,3.207,0,0,0,3.2-3.2V297.338a3.206,3.206,0,0,0-3.2-3.2Z" transform="translate(-184.467 -126.497)" fill="#8e8e8e"/>
  <path id="Path_22" data-name="Path 22" d="M259.278,602.445a3.624,3.624,0,0,0,0,7.249H332.8a3.624,3.624,0,0,0,0-7.249Z" transform="translate(-184.466 -126.492)" fill="#8e8e8e"/>
  <path id="Path_23" data-name="Path 23" d="M259.278,623.8a3.624,3.624,0,1,0,0,7.248H332.8a3.624,3.624,0,0,0,0-7.249Z" transform="translate(-184.466 -126.491)" fill="#8e8e8e"/>
  <path id="Path_24" data-name="Path 24" d="M296.038,691.522a22.813,22.813,0,1,1,22.813-22.813h0A22.839,22.839,0,0,1,296.038,691.522Zm0-43.491a20.678,20.678,0,1,0,20.678,20.678h0A20.7,20.7,0,0,0,296.038,648.031Z" transform="translate(-184.466 -126.491)" fill="#8e8e8e"/>
  <path id="Path_25" data-name="Path 25" d="M490.812,691.521a3.624,3.624,0,0,0,0-7.249H417.291a3.624,3.624,0,1,0,0,7.249Z" transform="translate(-184.464 -126.49)" fill="#8e8e8e"/>
  <path id="Path_26" data-name="Path 26" d="M490.812,670.167a3.624,3.624,0,0,0,0-7.249H417.291a3.624,3.624,0,1,0,0,7.249Z" transform="translate(-184.464 -126.49)" fill="#8e8e8e"/>
  <path id="Path_27" data-name="Path 27" d="M454.051,602.445a22.813,22.813,0,1,1-22.813,22.813h0A22.839,22.839,0,0,1,454.051,602.445Zm0,43.491a20.678,20.678,0,1,0-20.678-20.678h0A20.7,20.7,0,0,0,454.051,645.936Z" transform="translate(-184.463 -126.491)" fill="#8e8e8e"/>
  <circle id="Ellipse_36" data-name="Ellipse 36" cx="54.001" cy="54.001" r="54.001" transform="translate(180.64 78.194)" fill="#00ed96" opacity="0.3"/>
  <circle id="Ellipse_37" data-name="Ellipse 37" cx="36.001" cy="36.001" r="36.001" transform="translate(198.641 96.195)" fill="#00ed96" opacity="0.3"/>
  <circle id="Ellipse_38" data-name="Ellipse 38" cx="25" cy="25" r="25" transform="translate(209.641 107.195)" fill="#00ed96"/>
  <circle id="Ellipse_39" data-name="Ellipse 39" cx="39.922" cy="39.922" r="39.922" transform="translate(71.717 457.28)" fill="#00ed96" opacity="0.3"/>
  <circle id="Ellipse_40" data-name="Ellipse 40" cx="26.615" cy="26.615" r="26.615" transform="translate(85.024 470.587)" fill="#00ed96" opacity="0.3"/>
  <circle id="Ellipse_41" data-name="Ellipse 41" cx="18.482" cy="18.482" r="18.482" transform="translate(93.157 478.719)" fill="#00ed96"/>
  <circle id="Ellipse_42" data-name="Ellipse 42" cx="45.922" cy="45.922" r="45.922" transform="translate(231.72 295.277)" fill="#00ed96" opacity="0.3"/>
  <circle id="Ellipse_43" data-name="Ellipse 43" cx="30.615" cy="30.615" r="30.615" transform="translate(247.027 310.584)" fill="#00ed96" opacity="0.3"/>
  <circle id="Ellipse_44" data-name="Ellipse 44" cx="21.26" cy="21.26" r="21.26" transform="translate(256.382 319.939)" fill="#00ed96"/>
  <path id="Path_28" data-name="Path 28" d="M675.565,539l-9.447,15.958a11.915,11.915,0,0,1-18.825,2.206h0a11.914,11.914,0,0,1,1.591-17.931l15.365-11.11C679,508.147,687.481,474.2,694.706,437.468l30.022,3.521C716.989,471.035,698.486,504.346,675.565,539Z" transform="translate(-184.459 -126.494)" fill="#ffb8b8"/>
  <path id="Path_29" data-name="Path 29" d="M679.284,448.183,728.1,462.027V376.776l-6.481,2.1A37.5,37.5,0,0,0,697.457,403.1Z" transform="translate(-184.459 -126.495)" fill="#00ed96"/>
  <path id="Path_30" data-name="Path 30" d="M779.109,753.482l-18.216-.729c-5.982-61.567-13.62-117.478-29.146-146.458-15.035,16.1-18.451,66.984-20.968,136.256H693.128c-18.556-79.831-23.242-136.432,0-190.176h94.724Z" transform="translate(-184.459 -126.492)" fill="#2f2e41"/>
  <path id="Path_31" data-name="Path 31" d="M711.88,754.9l-31.618,16.153a6.96,6.96,0,0,1-9.55-3.424h0a6.96,6.96,0,0,1,2.791-8.737l4.312-2.6,12-17.947,20.461-1.616,3.743,3.587A9.043,9.043,0,0,1,711.88,754.9Z" transform="translate(-184.459 -126.489)" fill="#2f2e41"/>
  <path id="Path_32" data-name="Path 32" d="M776.13,770.031l-35.491,1a6.961,6.961,0,0,1-7.152-7.2h0a6.961,6.961,0,0,1,6.275-6.69l5.009-.493L763.323,745.6l19.169,7.335,1.838,4.847a9.042,9.042,0,0,1-8.2,12.245Z" transform="translate(-184.458 -126.489)" fill="#2f2e41"/>
  <circle id="Ellipse_45" data-name="Ellipse 45" cx="23.821" cy="23.821" r="23.821" transform="translate(531.766 186.874)" fill="#ffb8b8"/>
  <path id="Path_33" data-name="Path 33" d="M779.108,375.319,729.56,394.264c2.886-15.556,2.922-30.211-1.822-43.354l31.7-5.465C756.774,359.109,765.014,368.391,779.108,375.319Z" transform="translate(-184.458 -126.496)" fill="#ffb8b8"/>
  <path id="Path_34" data-name="Path 34" d="M799.51,566.223c-43.609,8.28-78.726,2.968-107.11-13.116,13.128-45.234,15-95.282,11.559-147.6A25.281,25.281,0,0,1,719.313,380.6l12.433-5.284c6.7,15.235,22.156,6.456,38.619-5.1l20.343,8.989a17.326,17.326,0,0,1,10.3,16.859C796.941,465.561,791.474,540.065,799.51,566.223Z" transform="translate(-184.459 -126.495)" fill="url(#linear-gradient)"/>
  <path id="Path_35" data-name="Path 35" d="M814.082,556.021l-1.3,18.586a12.852,12.852,0,0,1-13.64,11.931h0a12.852,12.852,0,0,1-10.08-19.638l10.444-16.71c6.17-24.052,1.275-58.694-5.829-95.452l29.146-8.015C826.941,477.477,822.306,515.3,814.082,556.021Z" transform="translate(-184.457 -126.494)" fill="#ffb8b8"/>
  <path id="Path_36" data-name="Path 36" d="M767.314,321.716s4.453-9.8-7.125-14.25c0,0-9.8-16.032-29.391-5.344,0,0-13.359,5.344-13.359,19.594s-4.454,16.922-4.454,16.922,6.632-6.8,8.413-12.147,15.635-6.556,20.978-1.212,18.7,4.453,18.7,4.453l-.891,19.594s4.453-11.578,6.235-11.578S769.986,321.716,767.314,321.716Z" transform="translate(-184.458 -126.497)" fill="#2f2e41"/>
  <path id="Path_37" data-name="Path 37" d="M833.027,447.454,784.208,461.3V376.047l6.48,2.1a37.5,37.5,0,0,1,24.165,24.227Z" transform="translate(-184.457 -126.495)" fill="#00ed96"/>
  <rect id="Rectangle_5" data-name="Rectangle 5" width="606.107" height="2" transform="translate(224.973 644.47)" fill="#00ed96"/>
  <path id="Path_38" data-name="Path 38" d="M867.108,609.562c13.251,18.73,16.751,125.333,17.531,159.5.02.77.04,1.5.05,2.19h33.541c.41-.73.79-1.449,1.15-2.19,19.88-39.24,8.85-86.292,8.27-88.672,1.51,7.48-5.32,29.161-13.04,50.161C909.9,665.983,869.628,612.822,867.108,609.562Z" transform="translate(-184.455 -126.491)" fill="#2d2b2b"/>
</svg>
