<svg xmlns="http://www.w3.org/2000/svg" xmlns:xlink="http://www.w3.org/1999/xlink" width="741.771" height="608.252" viewBox="0 0 741.771 608.252">
  <defs>
    <linearGradient id="linear-gradient" x1="0.5" x2="0.5" y2="1" gradientUnits="objectBoundingBox">
      <stop offset="0" stop-color="#00ed96"/>
      <stop offset="1" stop-color="#06f3f1"/>
    </linearGradient>
  </defs>
  <g id="Group_7" data-name="Group 7" transform="translate(0 -0.33)">
    <path id="Path_57" data-name="Path 57" d="M970.611,735.653c.227,23.735-149.341,25.911-152.19,0C818.194,711.922,967.761,709.746,970.611,735.653Z" transform="translate(-228.84 -145.698)" fill="#e6e6e6"/>
    <path id="Path_58" data-name="Path 58" d="M623.98,507.569l-11.116,6.063,7.074,23.242,11.115,1.01,6.063-13.136Z" transform="translate(0.769 -0.011)" fill="#9f616a"/>
    <path id="Path_59" data-name="Path 59" d="M658.28,553.994v11.115l17.178-1.01-.239-9.155Z" transform="translate(0.826 0.047)" fill="#9f616a"/>
    <path id="Path_60" data-name="Path 60" d="M619.929,374.348l6.063,75.789,19.2,111.155,30.315-4.042-10.1-87.914,4.042-80.84Z" transform="translate(0.778 -0.178)" fill="#2f2e41"/>
    <path id="Path_61" data-name="Path 61" d="M930.35,463.6l-72.757,1.01-8.084,55.578,49.515,23.242,12.126,44.463-61.64,65.683,24.252,30.315s34.358-46.483,59.621-72.757,13.136-106.1,13.136-106.1Z" transform="translate(-228.802 -146.017)" fill="#2f2e41"/>
    <circle id="Ellipse_61" data-name="Ellipse 61" cx="22.231" cy="22.231" r="22.231" transform="translate(635.865 129.626)" fill="#9f616a"/>
    <path id="Path_62" data-name="Path 62" d="M878.777,313.234v22.231l15.157,24.252s23.242-17.179,18.189-21.221-6.063-35.368-6.063-35.368Z" transform="translate(-228.765 -146.218)" fill="#9f616a"/>
    <path id="Path_63" data-name="Path 63" d="M649.216,185.626l-15.158,18.189,6.064,126.313,47.493-1.01L695.7,218.972l-10.1-28.294-6.932-9.431-12.268,18.525Z" transform="translate(0.796 -0.421)" fill="#d0cde1"/>
    <path id="Path_64" data-name="Path 64" d="M854.6,397.045l-11.115,42.442L854.6,481.928,836.409,506.18l-16.168-76.8s12.126-62.652,13.137-69.725,3.031-8.084,3.031-8.084l8.084,1.011Z" transform="translate(-228.838 -146.157)" fill="#2f2e41"/>
    <path id="Path_65" data-name="Path 65" d="M705.714,267.445l7.074,13.138,2.021,22.231-4.042,25.263,14.147,23.242,14.147-63.663L723.9,205.8H717.84Z" transform="translate(0.886 -0.39)" fill="#2f2e41"/>
    <path id="Path_66" data-name="Path 66" d="M849.535,652.327s-14.147,4.042-19.2,5.052,3.031,20.21,3.031,20.21,5.052,26.273,6.063,31.326,8.084,22.232,17.179,24.252S859.64,697.8,859.64,697.8s4.042-12.126,4.042-16.168-6.063-2.021-6.063-2.021C841.451,677.59,849.535,652.327,849.535,652.327Z" transform="translate(-228.828 -145.78)" fill="#2f2e41"/>
    <path id="Path_67" data-name="Path 67" d="M882.814,730.07c1.01,6.063-1.01,6.063,15.158,8.084S910.1,727.038,910.1,727.038a84.9,84.9,0,0,0-4.042-18.189c-3.031-8.084-19.2,2.021-19.2,2.021S881.8,724.006,882.814,730.07Z" transform="translate(-228.76 -145.713)" fill="#2f2e41"/>
    <path id="Path_68" data-name="Path 68" d="M906.11,303.883l.527,8.987s6.521-14.745,7.531-29.9-16.169-18.189-26.273-19.2-27.284,6.063-27.284,14.147,18.189,6.063,25.263,4.042,10.105,15.158,10.105,15.158l4.042,1.011Z" transform="translate(-228.788 -146.268)" fill="#2f2e41"/>
    <path id="Path_69" data-name="Path 69" d="M643.24,192.776l5.965-7.156,17.178,14.147L649.2,211.893Z" transform="translate(0.808 -0.415)" fill="#d0cde1"/>
    <path id="Path_70" data-name="Path 70" d="M685.554,190.677l-7.074-9.094-12.126,18.189,15.158,11.116Z" transform="translate(0.837 -0.42)" fill="#d0cde1"/>
    <path id="Path_71" data-name="Path 71" d="M851.545,411.219l4.042,38.4L847.5,472.86l-5.052,22.232s0,21.221,20.21,22.231,37.389-63.662,37.389-63.662,3.032,14.147,5.052,22.231,36.378,40.42,36.378,40.42,8.084-1.01,15.158-17.179-14.147-31.326-14.147-31.326l-6.063-21.221,2.021-26.273L952.6,351.6,910.66,329.873l4.548,58.1L900.05,433.451,877.313,332.9l-7.579,5.558L837.4,351.6Z" transform="translate(-228.817 -146.185)" fill="#2f2e41"/>
    <path id="Path_72" data-name="Path 72" d="M452.9,564.239c-2-.016-4.019-.029-6-.091l.062-2c1.964.061,3.973.088,5.943.09s3.995-.032,5.995-.1l.064,2C456.938,564.206,454.9,564.239,452.9,564.239Zm-18.042-.846c-3.986-.377-8.013-.889-11.966-1.519l.316-1.977c3.911.624,7.894,1.13,11.838,1.5ZM471,563.372l-.191-1.993c3.943-.378,7.926-.889,11.837-1.519l.319,1.977c-3.953.636-7.979,1.153-11.964,1.534Zm-59.948-3.783c-3.9-.885-7.831-1.91-11.672-3.045l.568-1.921c3.8,1.124,7.686,2.136,11.548,3.012Zm83.753-.05-.445-1.952c3.871-.883,7.755-1.9,11.544-3.026l.57,1.92c-3.83,1.137-7.757,2.166-11.67,3.058Zm-106.879-6.785c-3.766-1.384-7.535-2.907-11.2-4.529l.81-1.83c3.626,1.6,7.354,3.111,11.08,4.48Zm130-.078-.692-1.88c3.7-1.364,7.418-2.871,11.042-4.478l.813,1.83c-3.663,1.625-7.418,3.148-11.162,4.527Zm-152.078-9.692c-3.544-1.85-7.084-3.845-10.519-5.927l1.038-1.713c3.4,2.062,6.9,4.034,10.408,5.865Zm174.091-.073-.927-1.775c3.5-1.83,6.992-3.8,10.382-5.862l1.041,1.711c-3.428,2.083-6.958,4.076-10.5,5.925ZM345.206,530.469c-3.283-2.291-6.536-4.721-9.671-7.22l1.249-1.566c3.1,2.474,6.321,4.877,9.569,7.144Zm215.32-.071-1.148-1.641c3.247-2.269,6.462-4.673,9.556-7.144l1.25,1.564c-3.126,2.5-6.376,4.926-9.657,7.219ZM326.346,515.425c-2.968-2.694-5.885-5.517-8.671-8.388l1.437-1.394c2.756,2.841,5.643,5.634,8.58,8.3Zm253.019-.069-1.348-1.482c2.929-2.661,5.814-5.455,8.574-8.3l1.437,1.392c-2.789,2.88-5.7,5.7-8.664,8.394Zm-269.807-17.24c-2.6-3.047-5.132-6.216-7.531-9.419l1.6-1.2c2.374,3.17,4.88,6.306,7.451,9.319Zm286.587-.083-1.523-1.3c2.571-3.017,5.078-6.156,7.451-9.33l1.6,1.2c-2.4,3.208-4.933,6.381-7.532,9.43ZM295.114,478.817c-2.191-3.355-4.3-6.819-6.266-10.3l1.743-.986c1.946,3.441,4.032,6.869,6.2,10.188Zm315.478-.109-1.678-1.093c2.169-3.325,4.254-6.759,6.2-10.208l1.744.984c-1.968,3.486-4.077,6.958-6.269,10.317ZM283.256,457.844c-1.742-3.6-3.388-7.308-4.892-11.01l1.855-.753c1.488,3.661,3.117,7.326,4.841,10.891Zm339.2-.156-1.8-.871c1.723-3.571,3.352-7.245,4.842-10.924l1.856.751c-1.506,3.719-3.152,7.434-4.895,11.043Zm-348.27-22.169c-1.267-3.8-2.424-7.694-3.44-11.564l1.937-.508c1,3.828,2.15,7.678,3.4,11.439Zm357.337-.212-1.9-.63c1.246-3.758,2.387-7.608,3.389-11.444l1.938.506c-1.014,3.878-2.167,7.77-3.427,11.567ZM268.056,412.2c-.765-3.929-1.412-7.935-1.924-11.908l1.986-.256c.506,3.931,1.147,7.894,1.9,11.78Zm369.563-.22-1.965-.379c.751-3.886,1.388-7.851,1.889-11.784l1.987.254c-.508,3.975-1.152,7.982-1.912,11.909ZM264.973,388.282c-.257-3.991-.389-8.048-.393-12.058l2,0c0,3.968.136,7.982.39,11.931Zm375.7-.224-2-.127c.249-3.945.376-7.959.376-11.928v-.439h2V376c0,4.018-.128,8.074-.379,12.062ZM266.945,364.293l-2-.123c.248-4,.628-8.039,1.129-12.009l1.987.25C267.566,356.339,267.19,360.337,266.945,364.293Zm371.7-.657c-.26-3.958-.65-7.954-1.16-11.877l1.985-.258c.515,3.965.91,8,1.173,12Zm-368.709-23.01-1.966-.378c.755-3.93,1.65-7.889,2.658-11.766l1.938.5C271.57,332.822,270.686,336.738,269.938,340.627Zm365.63-.646c-.763-3.891-1.662-7.8-2.672-11.631l1.936-.51c1.021,3.869,1.929,7.824,2.7,11.756ZM275.945,317.539l-1.9-.628c1.257-3.805,2.656-7.622,4.159-11.345l1.857.75C278.572,310,277.187,313.775,275.945,317.539Zm353.538-.624c-1.258-3.759-2.653-7.524-4.148-11.191l1.854-.756c1.512,3.707,2.923,7.512,4.193,11.311ZM284.889,295.385l-1.805-.868c1.737-3.611,3.615-7.214,5.582-10.709l1.745.983C288.465,288.248,286.607,291.812,284.889,295.385Zm335.593-.546c-1.725-3.556-3.59-7.107-5.545-10.555l1.742-.988c1.976,3.485,3.861,7.075,5.6,10.67ZM296.6,274.574l-1.679-1.092c2.184-3.357,4.507-6.689,6.9-9.9l1.606,1.2C301.059,267.957,298.761,271.253,296.6,274.574Zm312.124-.471c-2.167-3.309-4.471-6.6-6.851-9.766l1.6-1.2c2.405,3.205,4.735,6.526,6.926,9.871ZM310.87,255.439l-1.525-1.3c2.594-3.051,5.32-6.059,8.1-8.939l1.44,1.391C316.135,249.444,313.437,252.42,310.87,255.439Zm283.541-.413c-2.575-3.01-5.281-5.977-8.042-8.819l1.435-1.4c2.792,2.871,5.526,5.87,8.128,8.913ZM327.453,238.28,326.1,236.8c2.963-2.7,6.049-5.335,9.171-7.833l1.252,1.564c-3.089,2.471-6.142,5.079-9.074,7.749Zm250.325-.363c-2.936-2.658-6-5.258-9.1-7.727l1.248-1.567c3.136,2.5,6.23,5.123,9.2,7.81Zm-231.7-14.542-1.149-1.64c3.277-2.3,6.671-4.516,10.09-6.6l1.042,1.71C352.677,218.907,349.317,221.1,346.075,223.375Zm213.025-.319c-3.26-2.269-6.63-4.458-10.016-6.507l1.036-1.713c3.422,2.07,6.829,4.283,10.123,6.577ZM366.435,210.971l-.93-1.774c3.54-1.857,7.189-3.624,10.845-5.251l.814,1.829C373.547,207.386,369.937,209.134,366.435,210.971Zm172.236-.275c-3.517-1.83-7.14-3.57-10.771-5.172l.809-1.832c3.67,1.619,7.333,3.378,10.888,5.228ZM388.2,201.284l-.7-1.878c3.755-1.389,7.6-2.674,11.443-3.818l.572,1.919c-3.8,1.132-7.607,2.4-11.32,3.777Zm128.613-.227c-3.722-1.362-7.535-2.619-11.334-3.737l.565-1.921c3.84,1.13,7.695,2.4,11.457,3.778Zm-105.752-6.588-.447-1.952c3.9-.893,7.879-1.671,11.838-2.313l.321,1.977C418.857,192.816,414.916,193.585,411.062,194.468Zm82.867-.146c-3.861-.87-7.8-1.626-11.721-2.247l.314-1.978c3.958.628,7.944,1.392,11.847,2.271Zm-59.319-3.675-.194-1.993c3.976-.386,8.025-.649,12.036-.783l.066,2c-3.969.132-7.975.392-11.909.774Zm35.758-.062c-3.94-.368-7.947-.615-11.911-.732l.06-2c4.005.119,8.056.368,12.038.74Z" transform="translate(-229.536 -146.363)" fill="#d0cde1"/>
    <ellipse id="Ellipse_62" data-name="Ellipse 62" cx="47" cy="45.5" rx="47" ry="45.5" transform="translate(168 0.33)" fill="url(#linear-gradient)"/>
    <ellipse id="Ellipse_63" data-name="Ellipse 63" cx="47" cy="48.5" rx="47" ry="48.5" transform="translate(351 127.33)" fill="url(#linear-gradient)"/>
    <circle id="Ellipse_64" data-name="Ellipse 64" cx="47" cy="47" r="47" transform="translate(293 323.33)" fill="url(#linear-gradient)"/>
    <ellipse id="Ellipse_65" data-name="Ellipse 65" cx="48.5" cy="47" rx="48.5" ry="47" transform="translate(66 331.33)" fill="url(#linear-gradient)"/>
    <path id="Path_88" data-name="Path 88" d="M46.948,0C72.876,0,93.9,21.637,93.9,48.328S72.876,96.657,46.948,96.657,0,75.019,0,48.328,21.019,0,46.948,0Z" transform="translate(0 127.364)" fill="url(#linear-gradient)"/>
    <path id="Path_73" data-name="Path 73" d="M465.772,189.048H449.358a5.628,5.628,0,0,1-5.628-5.628V167.006a.469.469,0,0,0-.469-.469H432.474a7.5,7.5,0,0,0-7.5,7.5v37.519a7.5,7.5,0,0,0,7.5,7.5h26.263a7.5,7.5,0,0,0,7.5-7.5V189.517A.469.469,0,0,0,465.772,189.048Zm-10.787,18.76h-18.76a1.876,1.876,0,0,1,0-3.752h18.76a1.876,1.876,0,1,1,0,3.752Zm0-9.38h-18.76a1.876,1.876,0,0,1,0-3.752h18.76a1.876,1.876,0,1,1,0,3.752Z" transform="translate(-229.335 -146.39)" fill="#fff"/>
    <path id="Path_74" data-name="Path 74" d="M464.715,184.9l-16.861-16.861a.235.235,0,0,0-.4.165v15.22a1.876,1.876,0,0,0,1.876,1.876h15.22a.234.234,0,0,0,.165-.4Z" transform="translate(-229.306 -146.388)" fill="#fff"/>
    <path id="Path_75" data-name="Path 75" d="M577.381,507.508a2.494,2.494,0,1,0,1.764.73A2.494,2.494,0,0,0,577.381,507.508Z" transform="translate(-229.146 -145.961)" fill="#fff"/>
    <path id="Path_76" data-name="Path 76" d="M591.3,497.55v-.008a1.907,1.907,0,0,0-1.414-1.43c-2.785-.679-7.165.045-12.02,1.988a38.654,38.654,0,0,0-12.575,7.963,29.966,29.966,0,0,0-2.761,3.161,12.244,12.244,0,0,0-5.473.879c-5.4,2.374-6.936,8.451-7.346,10.946a2.336,2.336,0,0,0,2.541,2.71h.012l6.01-.656c.007.077.016.147.022.211a3.212,3.212,0,0,0,.925,1.936l2.933,2.935a3.2,3.2,0,0,0,1.935.926l.2.022-.654,6v.012a2.336,2.336,0,0,0,2.084,2.564c.072.007.144.011.216.012a2.374,2.374,0,0,0,.388-.032c2.508-.4,8.582-1.926,10.95-7.35a12.355,12.355,0,0,0,.883-5.452,29.4,29.4,0,0,0,3.172-2.761,38.382,38.382,0,0,0,7.972-12.476C591.231,504.854,591.959,500.441,591.3,497.55Zm-10,16.341a5.491,5.491,0,1,1,0-7.766l0,0a5.448,5.448,0,0,1,.058,7.7Z" transform="translate(-229.178 -145.976)" fill="#fff"/>
    <path id="Path_77" data-name="Path 77" d="M561.813,528.946a1.492,1.492,0,0,0-1.028.249c-.6.409-1.2.812-1.8,1.206a1.394,1.394,0,0,1-1.962-1.869l1.135-1.962a1.495,1.495,0,0,0-1.417-2.328,5.721,5.721,0,0,0-3.329,1.631c-.342.343-1.382,1.384-1.942,5.35a33.379,33.379,0,0,0-.3,3.436,1.5,1.5,0,0,0,1.456,1.533h.076a33.571,33.571,0,0,0,3.439-.3c3.968-.561,5.009-1.6,5.351-1.943a5.653,5.653,0,0,0,1.625-3.339,1.5,1.5,0,0,0-1.3-1.665Z" transform="translate(-229.176 -145.94)" fill="#fff"/>
    <path id="Path_78" data-name="Path 78" d="M328.412,550.333H325a2.558,2.558,0,0,1-2.557-2.557V532.432A2.557,2.557,0,0,1,325,529.875h3.409a2.557,2.557,0,0,1,2.557,2.557v15.343A2.557,2.557,0,0,1,328.412,550.333Z" transform="translate(-229.463 -145.934)" fill="#fff"/>
    <path id="Path_79" data-name="Path 79" d="M352.249,550.346h-3.41a2.557,2.557,0,0,1-2.557-2.557V522.217a2.557,2.557,0,0,1,2.557-2.557h3.41a2.557,2.557,0,0,1,2.557,2.557v25.572A2.557,2.557,0,0,1,352.249,550.346Z" transform="translate(-229.433 -145.946)" fill="#fff"/>
    <path id="Path_80" data-name="Path 80" d="M364.168,550.36h-3.41A2.557,2.557,0,0,1,358.2,547.8V510.3a2.557,2.557,0,0,1,2.557-2.557h3.41a2.557,2.557,0,0,1,2.557,2.557V547.8A2.557,2.557,0,0,1,364.168,550.36Z" transform="translate(-229.418 -145.961)" fill="#fff"/>
    <path id="Path_81" data-name="Path 81" d="M340.33,550.371h-3.409a2.557,2.557,0,0,1-2.557-2.557v-46.03a2.557,2.557,0,0,1,2.557-2.557h3.41a2.557,2.557,0,0,1,2.557,2.557v46.03A2.557,2.557,0,0,1,340.33,550.371Z" transform="translate(-229.448 -145.972)" fill="#fff"/>
    <path id="Path_82" data-name="Path 82" d="M629.862,319.54l-2.436-2.437a2.985,2.985,0,0,0-4.211-.011l-16.936,15.63a3.162,3.162,0,0,0-1.059,2.151,3,3,0,0,0,.859,2.234l3.638,3.679.006.007a3.012,3.012,0,0,0,2.117.879h.11a3.133,3.133,0,0,0,2.161-1.042l15.739-16.858a2.985,2.985,0,0,0,.019-4.222Z" transform="translate(-229.108 -146.202)" fill="#fff"/>
    <path id="Path_83" data-name="Path 83" d="M649.421,314.636l-.029-.029-3.2-3.165a2,2,0,0,0-1.425-.584,2.042,2.042,0,0,0-1.193.386c0-.04.006-.079.008-.114a3.411,3.411,0,0,0-.485-2.353,24.048,24.048,0,0,0-2.314-2.681l-.007-.008a25.258,25.258,0,0,0-8.091-5.219,13.018,13.018,0,0,0-4.952-.975,9.438,9.438,0,0,0-6.041,2.116,11.153,11.153,0,0,0-1.323,1.513,1.493,1.493,0,0,0,1.74,2.271,6.9,6.9,0,0,1,.8-.245,5.924,5.924,0,0,1,1.721-.107,7.235,7.235,0,0,1,3.33,1.221,4.8,4.8,0,0,1,1.7,3.833,9.948,9.948,0,0,1-1.866,3.217,1.493,1.493,0,0,0,.135,1.959l3.21,3.21a1.493,1.493,0,0,0,2.052.058c.908-.811,2.29-2.033,2.774-2.333a3.476,3.476,0,0,1,1.371-.541,1.791,1.791,0,0,1,1.053.222.117.117,0,0,1-.029.089l-.17.161-.028.026a2.008,2.008,0,0,0-.006,2.839l.01.01,3.2,3.164a2,2,0,0,0,1.426.583,2.025,2.025,0,0,0,1.42-.578l5.178-5.115.052-.055A2.04,2.04,0,0,0,649.421,314.636Z" transform="translate(-229.09 -146.222)" fill="#fff"/>
    <path id="Path_84" data-name="Path 84" d="M284.044,317.988a1.868,1.868,0,0,1-1.321-3.189l4.283-4.283-4.283-4.283a1.868,1.868,0,0,1,2.642-2.641l5.6,5.6a1.868,1.868,0,0,1,0,2.642l-5.6,5.6A1.863,1.863,0,0,1,284.044,317.988Z" transform="translate(-229.514 -146.218)" fill="#fff"/>
    <path id="Path_85" data-name="Path 85" d="M254.2,323.584a1.868,1.868,0,0,1-1.868-1.868v-1.868a11.263,11.263,0,0,1,11.2-11.208h24.289a1.868,1.868,0,0,1,0,3.736H263.535a7.516,7.516,0,0,0-7.472,7.477v1.862a1.868,1.868,0,0,1-1.868,1.868Z" transform="translate(-229.551 -146.211)" fill="#fff"/>
    <path id="Path_86" data-name="Path 86" d="M269.127,338.509a1.863,1.863,0,0,1-1.321-.547l-5.6-5.6a1.868,1.868,0,0,1,0-2.642l5.6-5.6a1.868,1.868,0,0,1,2.642,2.642l-4.283,4.283,4.283,4.283a1.868,1.868,0,0,1-1.321,3.189Z" transform="translate(-229.54 -146.192)" fill="#fff"/>
    <path id="Path_87" data-name="Path 87" d="M265.388,332.912a1.868,1.868,0,0,1,0-3.736h24.283a7.516,7.516,0,0,0,7.472-7.477v-1.862a1.868,1.868,0,1,1,3.736,0V321.7a11.263,11.263,0,0,1-11.2,11.208Z" transform="translate(-229.537 -146.199)" fill="#fff"/>
  </g>
</svg>
